# xmcd CD database file generated by OrangeCD 6.1
#
# Track frame offsets:
#	150
#	12611
#	28971
#	46725
#	68626
#	83021
#	96916
#	122259
#	138073
#	151739
#	173613
#	188079
#
# Disc length: 2720 seconds
#
# Revision: 0
# Processed by: cddbd v1.5.2PL0 Copyright (c) Steve Scherf et al.
# Submitted via: OrangeCD 6.1
#
DISCID=880a9e0c
DTITLE=Johnny Hiland - All Fired Up
DYEAR=2011
DGENRE=Country
TTITLE0=Barnyard Breakdown
TTITLE1=All Fired Up
TTITLE2=Bakersfield Bound
TTITLE3=Forever Love
TTITLE4=Minor Adjustment
TTITLE5=Six String Swing
TTITLE6=Gone But Not Forgotten
TTITLE7=The Gloves Are Off
TTITLE8=Double Stoppin'
TTITLE9=Bluesberry Jam
TTITLE10=Breaker, Breaker, 1-9
TTITLE11=Party Time
EXTD=
EXTT0=
EXTT1=
EXTT2=
EXTT3=
EXTT4=
EXTT5=
EXTT6=
EXTT7=
EXTT8=
EXTT9=
EXTT10=
EXTT11=
PLAYORDER=
